<svg viewBox="0 0 1500 500" xmlns="http://www.w3.org/2000/svg" fill-rule="evenodd" clip-rule="evenodd" stroke-linecap="round" stroke-miterlimit="10"><g><path fill="none" d="M0 0h1500v500H0z"/><clipPath id="a"><path d="M0 0h1500v500H0z"/></clipPath><g clip-path="url(#a)"><path d="M69.59 119.722l160-94.924a40 40 0 0140.82 0l160 94.924A39.998 39.998 0 01450 154.123v191.754a39.998 39.998 0 01-19.59 34.401l-160 94.924a40 40 0 01-40.82 0l-160-94.924A40 40 0 0150 345.876V154.123a40 40 0 0119.59-34.401z" fill="#7e57c2" fill-rule="nonzero" stroke="#7e57c2" stroke-width="25"/><path d="M238.555 318.46c0 17.11-6.09 31.61-17.98 43.5-11.89 12.18-26.39 18.27-43.21 18.27h-61.19V121.84h61.19c17.11 0 31.61 6.09 43.5 18.27s17.69 26.39 17.69 43.5v134.85zm-83.52 23.2h23.49c6.38 0 11.6-2.32 15.66-6.67 4.35-4.35 6.38-9.57 6.38-15.66V184.19c0-6.09-2.03-11.6-6.38-15.95s-9.57-6.67-15.66-6.67h-23.49v180.09zM297.134 270.9v109.33h-38.86v-258.1h38.86v109.62h46.98V122.13h39.15v258.1h-39.15V270.9h-46.98z" fill="#fff" fill-rule="nonzero"/><path d="M662.296 308.693c0 11.8-4.2 21.8-12.4 30-8.2 8.4-18.2 12.6-29.8 12.6h-42.2v-178.2h42.2c11.8 0 21.8 4.2 30 12.6 8.2 8.4 12.2 18.2 12.2 30v93zm-57.6 16h16.2c4.4 0 8-1.6 10.8-4.6 3-3 4.4-6.6 4.4-10.8v-93.2c0-4.2-1.4-8-4.4-11-3-3-6.6-4.6-10.8-4.6h-16.2v124.2zM670.825 351.293v-178.2h76.4v27h-49.6v48.6h36.4v27h-36.4v48.6h49.6v27h-76.4zM782.486 351.293l-31.8-178h28.2l22.4 138.8 22.4-138.8h28.2l-32.4 178h-37zM886.04 275.893v75.4h-26.8v-178h26.8v75.6h32.4v-75.6h27v178h-27v-75.4h-32.4zM954.299 351.293v-178.2h76.4v27h-49.6v48.6h36.4v27h-36.4v48.6h49.6v27h-76.4zM1076.56 173.293c15 0 26 4.2 33 12.4 6 7.2 9.2 17.2 9.2 30v26c0 12.6-4.8 23.2-14.4 32l19.8 77.6h-29l-16.2-67h-18v67h-26.8v-178h42.4zm16 43c0-10.4-5-15.6-15.4-15.6h-16.2v57h16.2c4.4 0 8-1.6 11-4.6 3-3 4.4-6.6 4.4-10.8v-26zM1170.26 171.093c11.8 0 21.8 4.2 30 12.4 8.4 8.4 12.6 18.4 12.6 30.2v97.2c0 11.8-4.2 21.8-12.6 30.2-8.4 8.2-18.4 12.4-30 12.4-12 0-22-4.2-30.2-12.6-8.2-8.4-12.4-18.4-12.4-30v-97.2c0-11.8 4.2-22 12.6-30.2 8.2-8.4 18.2-12.4 30-12.4zm14.6 42c0-4.2-1.6-7.8-4.6-10.8-3-3-6.6-4.6-10.8-4.6-4.2 0-8 1.6-11 4.6-3 3-4.4 6.6-4.4 10.8v97.4c0 4.2 1.4 8 4.4 10.8 3 3 6.8 4.6 11 4.6s7.8-1.6 10.8-4.6c3-2.8 4.6-6.6 4.6-10.8v-97.4zM1221.3 351.293v-178.2h76.4v27h-49.6v48.6h36.4v27h-36.4v48.6h49.6v27h-76.4zM1389.96 306.893c.2 12.4-3 23-9.6 31.8-4.4 6-10.6 10.2-18.6 12.8-4.2 1.2-9.2 2-14.8 2-10.6 0-19.2-2.6-26.2-7.8-5.8-4.4-10.4-10.2-13.6-17.4-3.4-7.4-5.4-15.8-6-25.2l25.6-2c1.2 10.4 3.8 18 8.2 22.6 3.2 3.6 7 5.2 11.2 5 5.8-.2 10.4-3 14-8.6 1.8-2.8 2.6-6.8 2.6-11.8 0-7.4-3.2-14.8-10-22-5.4-5.2-13.2-12.6-23.8-22.6-9-8.8-15.2-16.4-19-23.2-4-7.8-6-16-6-25 0-16.4 5.6-28.6 16.4-37 6.8-5 15-7.4 25-7.4 9.6 0 17.8 2 24.6 6.4 5.2 3.2 9.6 7.8 12.8 13.8 3.4 6 5.2 12.8 6 20.6l-25.8 4.8c-.8-7.4-2.8-13-6.2-17.2-2.4-2.8-6-4.4-10.6-4.4-5 0-8.8 2.2-11.4 6.6-2 3.6-3 7.8-3 13 0 8.2 3.4 16.6 10.4 25 2.8 3.2 6.8 7 12 11.4 6.2 5.2 10.4 8.8 12.4 10.8 6.6 6.6 11.8 13.2 15.4 19.6 1.6 3 3 5.8 4 8.4 2.6 6.4 4 12 4 17z" fill="#7e57c2" fill-rule="nonzero"/></g></g></svg>